<?xml version="1.0" encoding="iso-8859-1"?>
<!-- Generator: Adobe Illustrator 16.0.0, SVG Export Plug-In . SVG Version: 6.00 Build 0)  -->
<!DOCTYPE svg PUBLIC "-//W3C//DTD SVG 1.1//EN" "http://www.w3.org/Graphics/SVG/1.1/DTD/svg11.dtd">
<svg version="1.1" id="Capa_1" xmlns="http://www.w3.org/2000/svg" xmlns:xlink="http://www.w3.org/1999/xlink" x="0px" y="0px"
	 width="411.98px" height="411.98px" viewBox="0 0 411.98 411.98" style="enable-background:new 0 0 411.98 411.98;"
	 xml:space="preserve">
<g>
	<path fill="#f0f8ff" d="M263.39,145.719l-68.766-27.163v287.922c0,3.044-2.471,5.503-5.509,5.503h-55.109c-3.038,0-5.509-2.459-5.509-5.503
		V118.556L59.74,145.719c-2.305,0.901-4.933,0.162-6.434-1.803c-0.738-0.993-1.108-2.169-1.108-3.325
		c0-1.173,0.381-2.364,1.144-3.357L157.188,2.152C158.234,0.795,159.851,0,161.559,0c1.705,0,3.328,0.801,4.374,2.152
		l103.84,135.082c1.525,1.965,1.531,4.69,0.036,6.682C268.319,145.881,265.694,146.62,263.39,145.719z M359.782,378.49v-31.776
		H232.677v31.776H359.782z"/>
</g>
<g>
</g>
<g>
</g>
<g>
</g>
<g>
</g>
<g>
</g>
<g>
</g>
<g>
</g>
<g>
</g>
<g>
</g>
<g>
</g>
<g>
</g>
<g>
</g>
<g>
</g>
<g>
</g>
<g>
</g>
</svg>
